# xmcd CD database file
# Copyright (C) 1993-1998 Ti Kan
#
# Track frame offsets:
# 182
# 11205
# 23607
# 33432
# 47132
# 54540
# 64382
# 74412
# 87535
# 101735
# 114462
# 126237
#
# Disc length: 1787 seconds
# Revision: 0
# Processed by: cddbd v1.4b41PL1 Copyright (c) Steve Scherf et al.
# Submitted via: CDSpectrumPro v3.4.340
#
DISCID=ac06f90c
DTITLE=Dakota Staton - Dakota Staton - More Than The Most
DYEAR=1900
DGENRE=
TTITLE0=September In The Rain
TTITLE1=Walkin' By The River
TTITLE2=East Of The Sun
TTITLE3=I Could Make You Care
TTITLE4=It's You Or No One
TTITLE5=High On A Windy Hill
TTITLE6=My Heart Beats Like A Hammer
TTITLE7=The Crazy Things We Do
TTITLE8=Some Days It's Monday
TTITLE9=The Song Is Ended
TTITLE10=Good-bye
TTITLE11=Love Walked In
EXTD=
EXTT0=
EXTT1=
EXTT2=
EXTT3=
EXTT4=
EXTT5=
EXTT6=
EXTT7=
EXTT8=
EXTT9=
EXTT10=
EXTT11=
PLAYORDER=
